<?xml version="1.0" standalone="no"?>
<!DOCTYPE svg PUBLIC "-//W3C//DTD SVG 20010904//EN"
 "http://www.w3.org/TR/2001/REC-SVG-20010904/DTD/svg10.dtd">
<svg version="1.0" xmlns="http://www.w3.org/2000/svg"
 width="1140.000000pt" height="787.000000pt" viewBox="0 0 1140.000000 787.000000"
 preserveAspectRatio="xMidYMid meet">
<metadata>
Created by potrace 1.16, written by Peter Selinger 2001-2019
</metadata>
<g transform="translate(0.000000,787.000000) scale(0.100000,-0.100000)"
fill="#000000" stroke="none">
<path d="M6643 7434 c-18 -8 -385 -104 -815 -215 -1835 -470 -2660 -682 -2771
-711 -117 -31 -117 -31 -329 -307 -117 -152 -570 -742 -1007 -1311 -437 -569
-869 -1132 -959 -1250 -91 -118 -180 -231 -200 -252 -40 -42 -36 -69 6 -42 45
30 1086 455 1093 447 7 -8 -108 -420 -571 -2048 -122 -429 -222 -786 -223
-793 -2 -10 120 -12 603 -12 l604 0 131 385 c130 385 130 385 190 426 33 23
191 131 352 240 292 199 292 199 1136 199 845 0 845 0 1133 -266 159 -146 292
-272 296 -279 4 -6 -36 -162 -88 -346 -53 -184 -97 -340 -98 -347 -1 -10 121
-12 604 -12 l605 0 195 692 c195 692 195 692 460 866 652 426 863 562 874 562
11 0 1136 -1413 1226 -1540 19 -27 39 -49 44 -50 5 0 217 91 470 202 254 111
502 218 551 239 90 38 90 38 92 376 3 338 3 338 -63 382 -36 24 -94 66 -130
93 -61 45 -84 52 -84 26 0 -16 -151 -432 -160 -442 -11 -11 -413 -57 -421 -48
-8 9 -419 2168 -419 2199 0 13 102 371 226 795 125 425 227 780 228 788 0 9
-244 241 -544 518 l-545 502 -835 0 c-835 0 -835 0 -1097 -181 -263 -182 -263
-182 -264 -248 0 -36 -6 -257 -14 -491 -13 -425 -13 -425 -114 -925 -55 -275
-103 -511 -107 -524 -6 -21 -4 -23 12 -18 10 4 296 99 634 212 338 112 619
203 625 201 5 -1 -8 -14 -30 -27 -128 -80 -1766 -1011 -1770 -1007 -3 3 85
250 195 549 111 299 244 659 296 800 52 141 94 269 94 285 0 16 -40 277 -89
579 -82 508 -87 551 -72 567 18 18 747 470 848 525 35 19 65 39 69 44 8 13
-36 9 -73 -7z"/>
<path d="M7470 2536 c-8 -8 -127 -87 -265 -176 -137 -89 -251 -164 -253 -165
-2 -2 -316 -1111 -353 -1245 -4 -13 50 -15 440 -15 443 0 443 0 522 279 78
280 78 280 14 765 -35 268 -65 504 -67 525 -3 43 -16 54 -38 32z"/>
<path d="M2835 1779 c-300 -200 -300 -200 -407 -521 -60 -177 -108 -323 -108
-325 0 -2 205 -2 456 -1 l456 3 143 505 c78 278 144 512 146 520 3 13 -23 15
-191 17 -195 2 -195 2 -495 -198z"/>
</g>
</svg>
