<?xml version="1.0" standalone="no"?>
<!DOCTYPE svg PUBLIC "-//W3C//DTD SVG 20010904//EN"
 "http://www.w3.org/TR/2001/REC-SVG-20010904/DTD/svg10.dtd">
<svg version="1.0" xmlns="http://www.w3.org/2000/svg"
 width="2000.000000pt" height="1160.000000pt" viewBox="0 0 2000.000000 1160.000000"
 preserveAspectRatio="xMidYMid meet">
<metadata>
Created by potrace 1.16, written by Peter Selinger 2001-2019
</metadata>
<g transform="translate(0.000000,1160.000000) scale(0.100000,-0.100000)"
fill="#000000" stroke="none">
<path d="M9750 9414 c-19 -2 -87 -9 -150 -15 -778 -73 -1555 -434 -2134 -990
-321 -308 -584 -671 -768 -1057 -645 -1356 -400 -2950 620 -4041 574 -614
1333 -1010 2157 -1125 722 -101 1471 21 2116 344 154 78 355 196 464 273 722
512 1214 1213 1439 2052 204 762 146 1616 -160 2333 -365 852 -1024 1530
-1859 1910 -324 147 -706 253 -1070 297 -122 15 -577 28 -655 19z m460 -254
c451 -34 879 -149 1265 -342 241 -120 417 -232 620 -394 141 -113 416 -388
527 -528 418 -525 670 -1154 729 -1816 17 -190 6 -596 -20 -765 -92 -602 -315
-1129 -671 -1586 -110 -141 -288 -339 -305 -339 -13 0 -15 80 -15 586 0 574 0
587 -21 620 -24 39 13 25 -484 183 -400 126 -400 126 -405 587 -5 505 -4 496
-68 527 -15 8 -304 101 -642 207 -338 107 -621 198 -627 203 -10 7 -13 199
-13 897 0 888 0 888 -26 919 -14 17 -43 36 -65 42 -33 10 -45 9 -76 -5 -21
-10 -47 -29 -58 -44 -20 -26 -20 -47 -25 -921 l-5 -894 -615 -199 c-573 -185
-617 -202 -647 -233 -33 -35 -33 -35 -33 -485 0 -450 0 -450 -27 -461 -15 -5
-210 -69 -433 -141 -223 -72 -417 -137 -432 -145 -59 -29 -58 -21 -58 -625 0
-327 -4 -559 -10 -568 -12 -19 -41 8 -164 155 -199 238 -333 440 -461 700
-181 367 -284 712 -330 1110 -20 171 -23 540 -6 710 95 922 541 1737 1271
2322 645 517 1505 784 2330 723z m357 -3275 c322 -102 592 -190 599 -196 12
-10 14 -260 14 -1535 0 -1523 0 -1523 -22 -1535 -12 -6 -85 -31 -162 -55 -106
-33 -142 -41 -148 -31 -4 6 -8 693 -8 1525 0 1662 4 1554 -60 1587 -64 33
-149 5 -176 -60 -12 -29 -14 -257 -14 -1574 0 -847 -4 -1542 -8 -1545 -22 -14
-248 -47 -359 -52 -102 -6 -127 -5 -134 7 -5 8 -9 734 -9 1707 0 1550 -1 1696
-16 1722 -36 59 -111 77 -172 40 -66 -41 -62 81 -62 -1786 0 -1697 0 -1697
-112 -1690 -113 7 -271 29 -340 47 -38 10 -38 10 -40 1562 -3 1260 -5 1556
-16 1575 -45 78 -167 81 -218 5 -18 -27 -19 -74 -22 -1550 -1 -884 -6 -1523
-11 -1523 -5 0 -73 20 -150 45 -141 46 -141 46 -141 1581 0 1536 0 1536 28
1546 111 42 1123 366 1145 367 16 1 292 -82 614 -184z m-2037 -2191 c0 -717
-3 -954 -12 -954 -21 0 -236 118 -363 199 -69 45 -171 116 -225 158 -100 78
-100 78 -100 709 0 630 0 630 343 741 188 61 345 109 350 106 4 -2 7 -434 7
-959z m3240 841 c167 -53 308 -99 312 -101 4 -3 8 -294 8 -648 0 -642 0 -642
-92 -712 -51 -39 -142 -102 -203 -141 -116 -74 -333 -193 -353 -193 -9 0 -12
231 -12 943 0 519 3 946 6 950 3 3 11 4 17 2 7 -2 149 -47 317 -100z"/>
<path d="M8385 7987 c-16 -12 -17 -22 -11 -78 26 -238 22 -252 -96 -374 -47
-50 -78 -90 -78 -103 0 -32 35 -48 130 -62 138 -19 200 -59 256 -170 52 -102
73 -130 98 -130 30 0 46 19 94 116 61 122 121 164 262 184 153 22 164 49 61
154 -114 119 -135 184 -107 340 14 80 14 92 1 113 -9 13 -22 23 -30 23 -9 0
-57 -21 -108 -47 -87 -45 -96 -48 -172 -48 -76 0 -84 2 -168 48 -97 51 -105
53 -132 34z"/>
<path d="M10885 7986 c-16 -12 -17 -21 -9 -87 5 -41 9 -108 9 -149 0 -92 -22
-134 -119 -230 -101 -99 -88 -129 64 -150 146 -20 196 -56 270 -195 53 -99 57
-105 85 -105 29 0 45 20 90 110 20 41 49 88 64 103 41 45 109 74 202 87 154
22 167 54 60 158 -112 110 -136 183 -108 337 26 141 1 158 -135 88 -88 -45
-97 -48 -173 -48 -76 0 -85 3 -172 48 -51 26 -96 47 -101 47 -4 0 -16 -6 -27
-14z"/>
<path d="M7820 6813 c-8 -4 -45 -30 -81 -59 -124 -100 -186 -113 -346 -69
-143 39 -161 16 -102 -132 55 -135 42 -220 -50 -350 -45 -62 -53 -106 -22
-122 10 -6 72 -9 137 -8 106 2 123 0 159 -20 56 -31 74 -48 139 -130 86 -111
119 -100 157 50 35 140 85 194 228 246 97 35 111 45 111 77 0 25 -20 43 -129
116 -96 65 -122 117 -131 266 -6 95 -11 118 -26 129 -19 14 -21 14 -44 6z"/>
<path d="M12007 6802 c-12 -13 -19 -50 -25 -135 -11 -152 -31 -187 -152 -270
-108 -73 -114 -80 -107 -109 7 -28 20 -35 133 -78 126 -47 174 -103 208 -245
32 -130 68 -149 133 -67 128 159 182 187 348 176 93 -6 101 -5 118 14 24 26
18 43 -44 137 -28 41 -55 89 -60 107 -16 58 -10 132 17 204 39 103 44 125 34
144 -16 31 -41 31 -134 4 -157 -45 -215 -31 -364 86 -70 55 -81 59 -105 32z"/>
</g>
</svg>
