<?xml version="1.0" standalone="no"?>
<!DOCTYPE svg PUBLIC "-//W3C//DTD SVG 20010904//EN"
 "http://www.w3.org/TR/2001/REC-SVG-20010904/DTD/svg10.dtd">
<svg version="1.0" xmlns="http://www.w3.org/2000/svg"
 width="2000.000000pt" height="1242.000000pt" viewBox="0 0 2000.000000 1242.000000"
 preserveAspectRatio="xMidYMid meet">
<metadata>
Created by potrace 1.16, written by Peter Selinger 2001-2019
</metadata>
<g transform="translate(0.000000,1242.000000) scale(0.100000,-0.100000)"
fill="#000000" stroke="none">
<path d="M9801 10950 c-482 -33 -931 -162 -1345 -387 -420 -227 -778 -537
-1065 -918 -359 -477 -567 -1001 -643 -1615 -19 -155 -16 -582 6 -745 80 -609
305 -1151 677 -1632 105 -135 389 -421 534 -537 490 -392 1067 -629 1705 -702
201 -23 619 -15 800 15 396 65 659 146 975 301 355 174 621 364 890 634 392
394 658 836 820 1364 135 442 173 954 105 1424 -199 1368 -1249 2472 -2610
2742 -252 50 -598 73 -849 56z m604 -245 c398 -55 720 -160 1065 -346 255
-137 473 -301 701 -528 247 -247 427 -497 579 -806 161 -328 246 -607 296
-975 22 -158 25 -547 6 -705 -43 -352 -148 -706 -296 -1005 -147 -295 -299
-513 -531 -763 -80 -86 -80 -86 -77 432 4 559 2 586 -46 619 -22 16 -505 173
-724 237 -58 16 -58 16 -58 426 0 448 -1 453 -58 483 -15 7 -274 91 -577 186
-302 94 -556 174 -563 178 -10 6 -13 173 -15 813 -2 791 -2 807 -22 829 -50
57 -125 58 -176 4 -24 -26 -24 -26 -26 -832 -2 -641 -5 -809 -15 -814 -7 -4
-258 -87 -558 -183 -465 -150 -549 -181 -575 -206 -30 -29 -30 -29 -32 -442
-2 -388 -3 -412 -20 -415 -58 -11 -791 -256 -806 -269 -36 -33 -39 -75 -35
-591 2 -276 0 -501 -3 -500 -7 3 -174 198 -243 282 -26 33 -81 109 -121 170
-294 444 -459 913 -506 1437 -14 165 -6 508 16 669 84 611 355 1187 772 1642
521 570 1211 913 1986 988 130 12 531 4 662 -15z m155 -2942 l535 -170 3
-1385 c2 -1386 2 -1386 -115 -1422 -65 -20 -128 -41 -141 -46 -56 -24 -52
-128 -52 1374 0 1384 0 1384 -31 1415 -25 25 -39 31 -75 31 -46 0 -86 -19
-101 -48 -4 -9 -10 -651 -13 -1427 -5 -1409 -5 -1409 -110 -1427 -58 -9 -161
-20 -230 -24 -125 -7 -125 -7 -122 1525 2 1405 1 1535 -14 1567 -28 59 -94 80
-154 49 -64 -33 -60 79 -58 -1610 3 -1535 3 -1535 -37 -1535 -67 1 -229 18
-324 36 -91 17 -91 17 -91 1416 0 1011 -3 1405 -11 1421 -20 39 -51 57 -102
57 -42 0 -53 -4 -78 -31 -29 -31 -29 -31 -29 -1416 0 -1315 -1 -1385 -17
-1378 -10 4 -72 24 -138 45 -120 38 -120 38 -122 1426 l-3 1389 528 172 c290
94 536 170 547 168 11 -1 261 -79 555 -172z m-1857 -1972 c1 -479 -1 -871 -4
-871 -11 0 -250 134 -329 185 -41 26 -126 86 -187 133 -113 85 -113 85 -113
654 0 446 3 569 13 572 178 55 569 182 587 192 14 7 26 11 28 10 1 -2 3 -395
5 -875z m2882 772 c127 -41 253 -80 280 -87 50 -13 50 -13 53 -599 2 -585 2
-585 -85 -650 -120 -88 -238 -164 -363 -232 -58 -31 -109 -61 -115 -66 -35
-34 -35 -32 -35 857 0 821 1 866 18 859 9 -4 121 -41 247 -82z"/>
<path d="M8570 9655 c-9 -10 -10 -31 -6 -63 19 -140 19 -176 -3 -228 -14 -31
-47 -75 -86 -114 -98 -97 -90 -121 52 -141 133 -20 175 -50 240 -174 37 -69
53 -91 71 -93 33 -5 49 12 92 99 59 116 106 149 244 168 44 6 85 16 93 22 30
25 14 61 -56 131 -96 95 -109 134 -91 271 20 150 1 164 -131 96 -71 -37 -91
-43 -144 -42 -50 0 -74 7 -142 42 -89 44 -114 49 -133 26z"/>
<path d="M10827 9663 c-10 -10 -8 -76 4 -153 17 -102 -2 -154 -92 -246 -74
-77 -87 -113 -49 -134 12 -6 59 -17 105 -25 128 -20 171 -53 229 -171 38 -79
55 -97 88 -92 17 2 33 22 63 80 65 125 120 169 225 183 111 14 140 28 140 66
0 5 -33 45 -73 87 -99 106 -110 145 -85 304 18 123 -5 134 -136 66 -69 -35
-90 -42 -143 -42 -53 0 -73 6 -142 42 -75 39 -119 51 -134 35z"/>
<path d="M7993 8552 c-72 -60 -88 -69 -152 -83 -44 -9 -62 -7 -146 16 -145 39
-160 21 -105 -122 48 -125 40 -175 -48 -312 -47 -73 -47 -70 -28 -96 12 -17
25 -19 119 -17 150 4 185 -13 284 -141 40 -52 49 -58 77 -55 28 3 33 8 48 58
10 30 22 73 28 96 5 23 28 61 50 87 33 37 57 52 123 77 152 59 155 85 17 173
-67 42 -83 60 -109 117 -14 32 -21 66 -21 116 0 148 -36 170 -137 86z"/>
<path d="M11831 8569 c-6 -18 -11 -64 -11 -103 0 -54 -6 -83 -24 -121 -27 -57
-46 -76 -134 -131 -97 -61 -93 -106 12 -140 133 -44 183 -94 216 -217 29 -107
35 -117 69 -117 23 0 39 13 87 75 84 108 126 127 269 123 94 -2 109 0 120 16
17 23 8 47 -43 124 -72 106 -79 169 -32 287 56 140 39 159 -105 120 -84 -23
-102 -25 -146 -16 -64 14 -80 23 -152 83 -72 59 -109 64 -126 17z"/>
<path d="M1888 3384 c-184 -44 -343 -195 -400 -377 -31 -98 -31 -234 0 -332
42 -137 146 -263 270 -328 122 -64 147 -67 561 -67 371 0 371 0 371 185 0 185
0 185 -60 185 -41 0 -60 -4 -61 -12 -1 -7 0 -64 1 -126 2 -114 2 -114 -317
-110 -300 3 -321 5 -372 25 -182 74 -291 229 -291 413 0 213 150 389 366 429
32 6 182 11 336 11 278 0 278 0 278 -64 0 -65 0 -65 -317 -68 -309 -3 -319 -4
-365 -26 -60 -30 -120 -89 -149 -150 -19 -38 -24 -63 -24 -132 0 -73 4 -92 27
-135 32 -60 87 -115 148 -147 43 -22 56 -23 298 -26 252 -3 252 -3 252 57 0
61 0 61 -225 61 -181 0 -233 3 -263 15 -77 33 -115 90 -116 177 -1 47 4 63 29
99 60 85 53 84 455 86 195 1 358 3 363 3 4 0 7 83 7 185 0 185 0 185 -372 184
-281 0 -387 -4 -430 -15z"/>
<path d="M3476 3363 c-41 -63 -616 -1066 -616 -1075 0 -4 96 -8 213 -8 212 0
212 0 293 143 198 344 334 583 342 596 5 9 19 -10 45 -60 52 -98 274 -476 303
-516 13 -17 24 -34 24 -37 0 -3 -34 -6 -75 -6 -67 0 -75 2 -86 23 -50 97 -196
337 -206 337 -14 0 -63 -86 -63 -109 1 -9 47 -95 104 -191 102 -175 102 -175
314 -178 149 -2 212 1 212 9 0 6 -62 117 -138 247 -76 130 -201 346 -278 479
-76 134 -144 243 -149 243 -10 0 -51 -69 -367 -617 -140 -243 -140 -243 -209
-243 -38 0 -69 4 -69 9 0 5 14 31 31 57 57 90 529 915 529 925 0 5 -29 9 -65
9 -64 0 -65 -1 -89 -37z"/>
<path d="M4520 3215 c0 -185 0 -185 468 -185 442 0 470 1 485 18 22 24 21 65
-1 85 -17 15 -61 17 -425 17 -407 0 -407 0 -407 65 0 65 0 65 403 65 246 0
416 -4 439 -10 101 -28 164 -150 127 -247 -15 -40 -57 -82 -104 -104 -37 -17
-74 -19 -512 -19 -473 0 -473 0 -473 -310 0 -310 0 -310 185 -310 185 0 185 0
185 185 0 185 0 185 -60 185 -60 0 -60 0 -60 -125 0 -125 0 -125 -65 -125 -65
0 -65 0 -65 190 0 189 0 189 443 192 442 3 442 3 496 33 220 122 220 428 -1
551 -53 29 -53 29 -555 32 -503 3 -503 3 -503 -183z"/>
<path d="M5910 2840 c0 -560 0 -560 185 -560 185 0 185 0 185 60 0 60 0 60
-125 60 -125 0 -125 0 -125 440 0 440 0 440 65 440 65 0 65 0 65 -375 0 -375
0 -375 60 -375 60 0 60 0 60 435 0 435 0 435 -185 435 -185 0 -185 0 -185
-560z"/>
<path d="M6510 3215 c0 -185 0 -185 210 -187 211 -3 211 -3 213 -373 2 -370 2
-370 187 -370 185 0 185 0 185 430 0 430 0 430 -60 430 -60 0 -60 0 -62 -370
-2 -370 -2 -370 -63 -370 -62 0 -62 0 -63 370 -2 370 -2 370 -214 373 -213 2
-213 2 -213 67 0 65 0 65 490 65 490 0 490 0 490 -65 0 -64 0 -64 -87 -67 -88
-3 -88 -3 -88 -58 0 -55 0 -55 148 -58 147 -3 147 -3 147 183 0 185 0 185
-610 185 -610 0 -610 0 -610 -185z"/>
<path d="M8167 3363 c-37 -59 -607 -1052 -614 -1069 -4 -12 27 -14 211 -14
215 0 215 0 232 32 9 18 99 176 200 351 101 175 184 322 184 326 0 4 6 16 14
26 12 17 15 15 39 -34 29 -58 64 -117 210 -366 55 -93 106 -177 113 -186 8 -8
14 -19 14 -22 0 -4 -33 -7 -74 -7 -73 0 -75 1 -89 30 -46 92 -192 330 -202
330 -12 0 -65 -88 -65 -108 0 -6 47 -91 104 -189 104 -178 104 -178 315 -181
159 -2 211 1 211 10 0 6 -52 102 -117 212 -255 441 -401 693 -417 724 -9 17
-22 32 -29 32 -6 0 -115 -180 -242 -400 -126 -220 -238 -414 -247 -430 -17
-29 -21 -30 -88 -30 -73 0 -84 8 -56 39 19 22 538 922 544 944 4 15 -4 17 -62
17 -65 0 -66 0 -89 -37z"/>
<path d="M9210 2965 l0 -435 555 0 c555 0 555 0 555 -65 0 -65 0 -65 -555 -65
-555 0 -555 0 -555 -60 0 -60 0 -60 615 -60 615 0 615 0 615 185 0 185 0 185
-552 185 l-553 0 0 315 c0 315 0 315 63 315 62 0 62 0 62 -250 0 -251 0 -251
63 -248 62 3 62 3 62 308 0 305 0 305 -187 308 -188 2 -188 2 -188 -433z"/>
<path d="M11470 3340 c0 -60 0 -60 344 -60 189 0 367 -5 396 -10 223 -42 372
-233 358 -457 -12 -180 -113 -316 -286 -385 -54 -21 -72 -23 -372 -26 -315 -3
-315 -3 -313 310 2 313 2 313 301 313 299 0 299 0 339 -27 98 -65 119 -192 47
-278 -44 -52 -65 -57 -259 -65 -180 -7 -180 -7 -180 126 0 134 0 134 -62 137
-63 3 -63 3 -63 -193 0 -196 0 -196 258 -193 246 3 259 4 300 26 58 31 114 88
143 148 34 69 35 198 1 266 -30 60 -90 120 -150 150 -46 23 -53 23 -424 26
l-378 3 0 -436 0 -436 393 3 c382 3 394 4 457 26 189 68 324 225 366 422 50
236 -69 491 -282 602 -125 66 -144 68 -561 68 -373 0 -373 0 -373 -60z"/>
<path d="M13193 3208 c-329 -570 -523 -910 -523 -918 0 -6 83 -10 210 -10 206
0 210 0 224 23 8 12 103 175 210 362 108 187 200 347 204 355 7 12 13 7 25
-22 22 -52 305 -538 328 -564 11 -11 19 -23 19 -27 0 -4 -33 -7 -73 -7 -74 0
-74 0 -178 180 -57 99 -109 180 -116 180 -14 0 -63 -82 -63 -107 0 -10 46 -97
103 -193 102 -175 102 -175 315 -178 135 -1 212 1 212 7 0 6 -69 129 -153 273
-84 145 -209 361 -278 480 -68 120 -130 217 -136 215 -12 -2 -131 -202 -395
-664 -111 -193 -111 -193 -184 -193 -41 0 -74 3 -74 7 0 3 7 14 14 22 19 21
556 951 556 962 0 5 -30 9 -68 9 -67 0 -67 0 -179 -192z"/>
<path d="M14822 3388 c-16 -21 -619 -1069 -629 -1093 -4 -13 26 -15 209 -15
213 0 213 0 406 335 107 184 203 353 214 377 19 39 21 41 34 23 8 -10 14 -22
14 -26 0 -13 302 -532 326 -560 8 -8 14 -19 14 -22 0 -4 -33 -7 -74 -7 -73 0
-75 1 -89 30 -46 92 -192 330 -202 330 -12 0 -65 -88 -65 -108 0 -6 47 -91
104 -189 104 -178 104 -178 315 -181 157 -2 211 1 211 9 0 7 -43 87 -96 178
-226 388 -424 731 -438 760 -9 17 -22 31 -29 31 -6 0 -115 -180 -242 -400
-126 -220 -238 -414 -247 -430 -17 -29 -21 -30 -88 -30 -39 0 -70 4 -70 10 0
5 13 29 29 52 45 66 531 915 531 927 0 16 -125 14 -138 -1z"/>
<path d="M15850 3215 c0 -185 0 -185 470 -185 463 0 470 0 491 21 15 15 19 28
14 47 -12 52 -9 52 -446 52 -406 0 -406 0 -406 65 0 66 0 66 426 63 427 -3
427 -3 469 -31 112 -74 113 -234 3 -312 -43 -30 -43 -30 -532 -33 -489 -3
-489 -3 -489 -312 0 -310 0 -310 185 -310 185 0 185 0 185 125 0 125 0 125
144 125 143 0 143 0 212 -122 69 -123 69 -123 282 -126 166 -2 212 0 212 10 0
7 -47 92 -103 188 -103 175 -103 175 -161 178 -33 2 -63 -1 -69 -7 -10 -10 57
-136 110 -208 12 -17 23 -34 23 -37 0 -3 -33 -6 -74 -6 -73 0 -73 0 -131 103
-100 176 -61 158 -328 155 -232 -3 -232 -3 -235 -130 -3 -128 -3 -128 -65
-128 -62 0 -62 0 -62 190 0 189 0 189 440 192 437 3 440 3 487 26 60 30 120
89 149 150 19 38 24 63 24 132 0 73 -4 92 -27 135 -33 63 -88 118 -147 147
-46 23 -49 23 -548 26 -503 3 -503 3 -503 -183z"/>
<path d="M17310 2840 c0 -560 0 -560 238 -560 237 0 237 0 175 60 -61 60 -61
60 -177 60 -116 0 -116 0 -116 440 0 440 0 440 65 440 65 0 65 0 65 -220 0
-121 3 -220 7 -220 8 0 82 69 293 275 165 160 165 160 253 165 49 3 91 1 94
-4 4 -5 -7 -18 -23 -30 -62 -45 -609 -568 -609 -583 0 -8 90 -98 200 -199 200
-183 200 -183 473 -184 149 0 272 2 272 4 0 11 -490 456 -502 456 -8 0 -31
-17 -51 -38 -38 -39 -38 -39 76 -144 63 -59 127 -114 141 -123 44 -29 26 -38
-68 -36 -88 2 -88 2 -230 133 -77 72 -139 134 -137 137 3 3 174 165 380 359
207 194 378 357 379 363 2 5 -102 9 -265 9 -268 0 -268 0 -410 -135 -78 -74
-144 -135 -147 -135 -3 0 -6 61 -6 135 0 135 0 135 -185 135 -185 0 -185 0
-185 -560z"/>
<path d="M12185 1780 c-10 -15 -8 -16 52 -24 33 -4 54 -3 58 4 10 16 7 17 -51
25 -35 4 -54 3 -59 -5z"/>
<path d="M3175 1727 c-3 -7 -4 -67 -3 -133 3 -115 4 -119 26 -122 21 -3 22 0
22 52 0 56 0 56 40 56 36 0 40 3 40 25 0 23 -4 25 -41 25 -38 0 -40 1 -37 28
3 25 6 27 53 27 47 0 50 2 50 25 0 24 -3 25 -73 28 -54 2 -74 -1 -77 -11z"/>
<path d="M3760 1723 c-130 -68 -89 -253 57 -253 72 0 133 63 133 137 0 90
-110 157 -190 116z m100 -53 c28 -15 43 -67 27 -98 -29 -61 -98 -66 -140 -10
-49 65 37 148 113 108z"/>
<path d="M4311 1721 c-12 -21 -14 -183 -4 -229 4 -17 11 -22 27 -20 18 3 21 9
19 51 -3 55 10 61 33 15 24 -49 44 -68 71 -68 30 0 29 15 -2 56 -24 31 -24 33
-7 46 48 34 53 85 14 129 -24 27 -37 33 -84 37 -49 4 -57 2 -67 -17z m93 -41
c36 -13 36 -57 0 -70 -35 -14 -44 -6 -44 41 0 42 4 44 44 29z"/>
<path d="M4967 1734 c-4 -4 -7 -47 -7 -95 0 -98 -13 -125 -57 -116 -31 6 -59
-19 -42 -39 21 -25 83 -17 118 15 32 30 32 30 29 133 -2 83 -6 103 -18 106 -9
1 -19 0 -23 -4z"/>
<path d="M6117 1734 c-4 -4 -7 -38 -7 -76 0 -37 -2 -68 -6 -68 -3 0 -30 27
-61 60 -94 102 -93 103 -93 -50 0 -130 0 -130 25 -130 25 0 25 2 25 77 0 77 0
77 73 5 40 -39 76 -72 80 -72 4 0 6 57 5 127 -3 106 -6 128 -18 131 -9 1 -19
0 -23 -4z"/>
<path d="M6533 1729 c-15 -15 -18 -226 -4 -248 6 -10 24 -12 67 -9 50 4 61 9
91 41 27 30 33 45 33 82 0 54 -19 96 -55 119 -35 23 -116 32 -132 15z m115
-75 c12 -14 22 -38 22 -55 0 -37 -41 -82 -71 -77 -19 3 -21 9 -21 76 1 39 1
77 1 83 1 17 44 0 69 -27z"/>
<path d="M7160 1729 c-65 -26 -101 -100 -80 -164 6 -19 27 -48 46 -65 83 -72
214 -9 214 103 0 53 -26 93 -75 117 -45 22 -67 24 -105 9z m109 -75 c62 -79
-44 -180 -114 -109 -53 52 -18 135 56 135 29 0 42 -6 58 -26z"/>
<path d="M8215 1726 c-101 -46 -114 -180 -22 -236 67 -41 159 -14 192 56 51
107 -64 229 -170 180z m102 -68 c33 -31 32 -90 -3 -117 -37 -29 -70 -26 -105
8 -36 36 -37 73 -4 106 31 32 80 33 112 3z"/>
<path d="M11167 1734 c-4 -4 -7 -38 -7 -76 0 -37 -3 -68 -7 -68 -3 0 -31 27
-61 60 -92 103 -92 103 -92 -50 0 -131 0 -131 23 -128 20 3 22 9 24 68 0 36 1
69 2 73 1 4 33 -24 73 -63 39 -38 75 -70 80 -70 5 0 7 57 6 127 -3 106 -6 128
-18 131 -9 1 -19 0 -23 -4z"/>
<path d="M11582 1732 c-9 -7 -12 -40 -10 -133 3 -124 3 -124 28 -124 23 0 25
3 25 50 0 50 0 50 43 53 42 3 42 3 42 -53 0 -53 1 -56 23 -53 22 3 22 6 22
133 0 123 -1 130 -20 130 -17 0 -20 -8 -23 -52 -3 -53 -3 -53 -48 -53 -44 0
-44 0 -38 40 9 53 -12 82 -44 62z"/>
<path d="M13154 1727 c-2 -7 -3 -67 -2 -133 3 -119 3 -119 53 -122 84 -4 145
52 145 136 0 39 -38 93 -80 114 -41 21 -108 24 -116 5z m97 -52 c75 -39 47
-155 -36 -155 -12 0 -15 16 -15 78 0 70 4 92 17 92 2 0 17 -7 34 -15z"/>
<path d="M13711 1721 c-12 -21 -15 -191 -5 -229 5 -16 13 -22 28 -20 20 3 21
8 21 133 0 114 -2 130 -17 133 -9 2 -21 -6 -27 -17z"/>
<path d="M14215 1733 c-61 -17 -95 -67 -95 -139 0 -41 5 -51 40 -86 39 -39 42
-40 97 -36 49 4 60 9 90 41 26 29 33 45 33 77 0 41 0 41 -62 38 -57 -3 -63 -5
-66 -25 -4 -24 2 -26 51 -23 34 2 35 -13 1 -39 -31 -25 -55 -26 -93 -6 -47 24
-55 74 -19 120 20 25 25 27 73 21 38 -4 56 -2 64 8 24 29 -58 64 -114 49z"/>
<path d="M14745 1728 c-3 -8 -4 -68 -3 -134 3 -115 4 -119 26 -122 23 -3 23
-3 20 130 -3 117 -5 133 -21 136 -9 2 -19 -3 -22 -10z"/>
<path d="M15160 1725 c-18 -22 5 -48 36 -41 23 6 23 5 26 -101 3 -103 4 -108
25 -111 22 -3 22 0 25 105 3 108 3 108 33 108 25 0 30 4 30 25 0 24 -2 25 -81
28 -63 2 -84 -1 -94 -13z"/>
<path d="M16252 1728 c-13 -13 -17 -212 -6 -242 5 -13 22 -16 80 -16 72 0 74
1 74 24 0 23 -4 25 -51 28 -52 3 -52 3 -50 104 2 86 0 102 -14 108 -21 8 -19
8 -33 -6z"/>
<path d="M5446 1688 c-8 -18 -30 -68 -50 -112 -20 -43 -36 -85 -36 -92 0 -22
48 -17 55 6 5 16 15 20 53 20 36 0 50 -5 60 -20 14 -23 52 -27 52 -6 0 23 -96
230 -109 234 -6 2 -18 -11 -25 -30z m43 -100 c11 -28 6 -38 -19 -38 -10 0 -21
3 -23 8 -7 11 11 52 23 52 6 0 14 -10 19 -22z"/>
<path d="M9241 1603 c-28 -65 -51 -121 -51 -125 0 -5 12 -8 26 -8 17 0 28 6
31 20 4 17 14 20 54 20 39 0 51 -4 59 -21 13 -23 57 -23 52 1 -6 35 -98 230
-108 230 -6 0 -34 -53 -63 -117z m79 -13 c13 -25 5 -40 -21 -40 -19 0 -24 15
-13 44 8 22 21 20 34 -4z"/>
<path d="M9782 1598 c3 -111 5 -123 22 -126 26 -5 34 13 28 64 -2 24 -2 44 1
44 3 0 20 -20 37 -45 17 -25 36 -45 43 -45 7 0 25 20 40 46 15 25 31 43 36 40
4 -3 6 -28 3 -56 -4 -49 -4 -50 22 -50 26 0 26 0 26 125 0 69 -4 125 -8 125
-5 0 -31 -33 -58 -72 -26 -40 -51 -77 -55 -81 -4 -5 -32 28 -63 72 -32 45 -62
81 -67 81 -6 0 -8 -49 -7 -122z"/>
<path d="M10501 1702 c-25 -47 -91 -204 -91 -217 0 -22 38 -18 52 5 10 15 24
20 60 20 38 0 48 -4 53 -20 7 -22 55 -29 55 -7 -1 20 -98 231 -109 235 -5 2
-14 -5 -20 -16z m37 -125 c3 -21 -1 -27 -17 -27 -27 0 -34 15 -21 40 15 28 34
21 38 -13z"/>
<path d="M12190 1636 c-75 -162 -76 -166 -39 -166 10 0 23 9 29 20 8 16 21 20
59 20 40 0 50 -3 54 -20 3 -14 14 -20 31 -20 14 0 26 3 26 8 1 17 -104 242
-112 242 -5 0 -27 -38 -48 -84z m64 -42 c11 -29 6 -44 -13 -44 -26 0 -34 15
-21 40 13 24 26 26 34 4z"/>
<path d="M15708 1612 c-26 -59 -49 -114 -50 -122 -5 -24 39 -24 52 -1 8 17 20
21 59 21 40 0 50 -3 54 -20 3 -14 14 -20 31 -20 14 0 26 3 26 8 1 19 -104 242
-114 242 -6 0 -32 -49 -58 -108z m76 -18 c11 -29 6 -44 -13 -44 -26 0 -34 15
-21 40 13 24 26 26 34 4z"/>
<path d="M16767 1524 c-23 -23 7 -69 37 -58 25 10 17 58 -9 62 -12 2 -24 0
-28 -4z"/>
</g>
</svg>
